<svg preserveAspectRatio="none" overflow="visible" style="display: block;" width="26" height="26" viewBox="0 0 26 26" fill="none" xmlns="http://www.w3.org/2000/svg">
<g id="06_activity_lifestyle 2">
<path id="Vector" d="M14.8527 18.8942C15.9228 18.8942 16.7806 19.752 16.7806 20.8221C16.7806 21.8922 15.9228 22.75 14.8527 22.75C13.7826 22.75 12.9248 21.8922 12.9248 20.8221C12.9248 19.752 13.7826 18.8942 14.8527 18.8942ZM11.8282 11.2004L15.2153 9.29898L13.031 7.42414C12.5622 7.02617 12.5711 6.50443 12.8541 6.18605C13.1459 5.85886 13.6677 5.77927 14.1541 6.19491L17.2051 8.79491C17.6207 9.14863 17.5589 9.90917 17.0548 10.2364L13.7384 12.4119L14.3929 14.7024C14.4813 15.0296 14.8616 15.0738 15.0561 14.7908L16.0289 13.367C16.2589 13.0398 16.6745 12.9071 17.0548 13.084L19.8581 14.331C20.3534 14.552 20.5391 14.9854 20.3269 15.4364C20.1058 15.8786 19.6813 16.0112 19.186 15.7901L16.9663 14.8085L15.4364 16.9221C14.6405 18.0187 13.65 18.4697 12.0228 18.3459L8.91869 18.1248C8.42347 18.0895 8.08742 17.7711 8.01665 17.2582L7.60102 14.1099C7.52143 13.5616 7.79557 13.1813 8.28198 13.1282C8.77719 13.084 9.09557 13.367 9.16634 13.9153L9.54659 16.4888L10.7935 16.5772C11.0677 16.6037 11.3418 16.4092 11.2446 16.0643L10.5194 13.535C10.0949 12.0405 11.0677 11.6337 11.8282 11.2004ZM5.91191 3.55952C6.23911 3.28538 6.74318 3.25 7.1942 3.68335L10.0595 6.5221C10.2983 6.76089 10.3514 6.81395 10.5017 7.18538L11.7044 10.2983L11.4126 10.4575C10.7405 10.8201 10.2718 11.1915 9.95341 11.5895L8.90102 7.86634L5.92958 4.90372C5.46089 4.44389 5.54933 3.8779 5.91191 3.55952Z" fill="currentColor"/>
</g>
</svg>
